<svg width="30" height="30" viewBox="0 0 30 30" fill="none" xmlns="http://www.w3.org/2000/svg">
<g id="Iconly/Light-Outline/Show">
<g id="Show">
<path id="Fill 1" fill-rule="evenodd" clip-rule="evenodd" d="M14.9995 12.0516C13.337 12.0516 11.9857 13.4041 11.9857 15.0666C11.9857 16.7279 13.337 18.0791 14.9995 18.0791C16.662 18.0791 18.0145 16.7279 18.0145 15.0666C18.0145 13.4041 16.662 12.0516 14.9995 12.0516ZM14.9995 19.9541C12.3032 19.9541 10.1107 17.7616 10.1107 15.0666C10.1107 12.3704 12.3032 10.1766 14.9995 10.1766C17.6958 10.1766 19.8895 12.3704 19.8895 15.0666C19.8895 17.7616 17.6958 19.9541 14.9995 19.9541Z" fill="#A3B938"/>
<g id="Group 5">
<mask id="mask0_0_343" style="mask-type:luminance" maskUnits="userSpaceOnUse" x="2" y="5" width="26" height="21">
<path id="Clip 4" fill-rule="evenodd" clip-rule="evenodd" d="M2.50019 5.00024H27.5V25.1315H2.50019V5.00024Z" fill="white"/>
</mask>
<g mask="url(#mask0_0_343)">
<path id="Fill 3" fill-rule="evenodd" clip-rule="evenodd" d="M4.46238 15.0656C6.78738 20.2019 10.7036 23.2556 14.9999 23.2569C19.2961 23.2556 23.2124 20.2019 25.5374 15.0656C23.2124 9.93063 19.2961 6.87688 14.9999 6.87563C10.7049 6.87688 6.78738 9.93063 4.46238 15.0656ZM15.0024 25.1319H14.9974H14.9961C9.82613 25.1281 5.18363 21.5044 2.57613 15.4356C2.47488 15.1994 2.47488 14.9319 2.57613 14.6956C5.18363 8.62813 9.82738 5.00438 14.9961 5.00063C14.9986 4.99938 14.9986 4.99938 14.9999 5.00063C15.0024 4.99938 15.0024 4.99938 15.0036 5.00063C20.1736 5.00438 24.8161 8.62813 27.4236 14.6956C27.5261 14.9319 27.5261 15.1994 27.4236 15.4356C24.8174 21.5044 20.1736 25.1281 15.0036 25.1319H15.0024Z" fill="#A3B938"/>
</g>
</g>
</g>
</g>
</svg>
